<?xml version="1.0" encoding="UTF-8" standalone="no"?>
<svg
   xmlns:dc="http://purl.org/dc/elements/1.1/"
   xmlns:cc="http://creativecommons.org/ns#"
   xmlns:rdf="http://www.w3.org/1999/02/22-rdf-syntax-ns#"
   xmlns:svg="http://www.w3.org/2000/svg"
   xmlns="http://www.w3.org/2000/svg"
   xmlns:sodipodi="http://sodipodi.sourceforge.net/DTD/sodipodi-0.dtd"
   xmlns:inkscape="http://www.inkscape.org/namespaces/inkscape"
   version="1.0"
   x="0px"
   y="0px"
   viewBox="0 0 512 512"
   enable-background="new 0 0 100 55.02"
   xml:space="preserve"
   id="svg6"
   sodipodi:docname="views.svg"
   width="512"
   height="512"
   inkscape:version="0.92.5 (2060ec1f9f, 2020-04-08)"><metadata
     id="metadata12"><rdf:RDF><cc:Work
         rdf:about=""><dc:format>image/svg+xml</dc:format><dc:type
           rdf:resource="http://purl.org/dc/dcmitype/StillImage" /><dc:title /></cc:Work></rdf:RDF></metadata><defs
     id="defs10" /><sodipodi:namedview
     pagecolor="#505050"
     bordercolor="#eeeeee"
     borderopacity="1"
     objecttolerance="10"
     gridtolerance="10"
     guidetolerance="10"
     inkscape:pageopacity="0"
     inkscape:pageshadow="2"
     inkscape:window-width="1920"
     inkscape:window-height="1016"
     id="namedview8"
     showgrid="false"
     inkscape:zoom="1.516514"
     inkscape:cx="356.3666"
     inkscape:cy="268.41208"
     inkscape:window-x="0"
     inkscape:window-y="27"
     inkscape:window-maximized="1"
     inkscape:current-layer="svg6" /><path
     d="M 509.08672,251.60814 C 452.71552,166.6972 358.10304,116 256.03072,116 153.97376,116 59.35616,166.6972 2.91328,251.60814 L 0,256 2.91328,260.37659 C 59.30496,345.3028 153.93792,396 256.03072,396 c 102.07232,0 196.6848,-50.6972 253.056,-135.64885 L 512,256 Z M 30.89408,256 C 72.47872,198.72774 133.4528,160.19847 201.8048,146.70738 c -11.42784,5.74046 -22.01088,13.27735 -31.3088,22.49364 -23.26016,23.10432 -36.07552,53.83206 -36.07552,86.48346 0,32.67175 12.81536,63.41476 36.07552,86.5089 9.87136,9.78117 21.13536,17.59288 33.3056,23.47074 C 134.66112,352.53435 72.88832,313.81679 30.89408,256 Z m 226.40128,75.45038 c -41.9072,0 -75.96032,-33.89313 -75.96032,-75.52163 0,-20.16794 7.91552,-39.10941 22.2208,-53.40458 14.35136,-14.26463 33.4336,-22.10178 53.73952,-22.10178 20.27008,0 39.35744,7.83715 53.72928,22.10178 14.34112,14.29517 22.24128,33.23156 22.24128,53.40458 0,20.16794 -7.90016,39.13995 -22.24128,53.41985 -14.37184,14.24428 -33.4592,22.10178 -53.72928,22.10178 z m 55.8336,33.29771 c 11.4688,-5.77608 22.03648,-13.28244 31.38048,-22.55471 23.22432,-23.09414 36.04992,-53.83715 36.04992,-86.5089 0,-46.88041 -26.75712,-87.65395 -65.82272,-108.1425 C 381.27616,161.79644 440.48384,199.98473 481.12128,256 440.14592,312.44784 380.3392,350.73791 313.12896,364.74809 Z"
     id="path2"
     inkscape:connector-curvature="0"
     style="stroke-width:5.10450602;fill:#ffffff" /></svg>